<svg width="20" height="20" viewBox="0 0 20 20" fill="none" xmlns="http://www.w3.org/2000/svg">
    <path fill-rule="evenodd" clip-rule="evenodd"
          d="M10.0002 2.5C10.3454 2.5 10.6252 2.77982 10.6252 3.125V10C10.6252 10.3452 10.3454 10.625 10.0002 10.625C9.65507 10.625 9.37524 10.3452 9.37524 10V3.125C9.37524 2.77982 9.65507 2.5 10.0002 2.5Z"
          fill="black"/>
    <path fill-rule="evenodd" clip-rule="evenodd"
          d="M2.8667 7.68184C2.97339 7.35356 3.32599 7.17392 3.65427 7.2806L10.1933 9.4056C10.5216 9.51228 10.7013 9.86488 10.5946 10.1932C10.4879 10.5214 10.1353 10.7011 9.80701 10.5944L3.26794 8.4694C2.93966 8.36272 2.76002 8.01012 2.8667 7.68184Z"
          fill="black"/>
    <path fill-rule="evenodd" clip-rule="evenodd"
          d="M10.3674 9.49427C10.6467 9.69708 10.7087 10.0879 10.5059 10.3672L6.46687 15.9297C6.26406 16.209 5.87322 16.2711 5.59391 16.0682C5.3146 15.8654 5.25258 15.4746 5.4554 15.1953L9.49446 9.63278C9.69727 9.35347 10.0881 9.29146 10.3674 9.49427Z"
          fill="black"/>
    <path fill-rule="evenodd" clip-rule="evenodd"
          d="M9.63306 9.49427C9.91237 9.29146 10.3032 9.35347 10.506 9.63278L14.5451 15.1953C14.7479 15.4746 14.6859 15.8654 14.4066 16.0682C14.1273 16.2711 13.7364 16.209 13.5336 15.9297L9.49455 10.3672C9.29174 10.0879 9.35375 9.69708 9.63306 9.49427Z"
          fill="black"/>
    <path fill-rule="evenodd" clip-rule="evenodd"
          d="M17.1337 7.68184C17.2404 8.01012 17.0608 8.36272 16.7325 8.4694L10.1934 10.5944C9.86514 10.7011 9.51254 10.5214 9.40586 10.1932C9.29918 9.86488 9.47882 9.51228 9.8071 9.4056L16.3462 7.2806C16.6744 7.17392 17.027 7.35356 17.1337 7.68184Z"
          fill="black"/>
</svg>
