<svg width="19" height="16" viewBox="0 0 19 16" fill="none" xmlns="http://www.w3.org/2000/svg">
    <path fill-rule="evenodd" clip-rule="evenodd" d="M5.63212 0.71967C5.9175 1.01256 5.9175 1.48744 5.63212 1.78033L1.76423 5.75L5.63212 9.71967C5.9175 10.0126 5.9175 10.4874 5.63212 10.7803C5.34673 11.0732 4.88404 11.0732 4.59865 10.7803L0.214037 6.28033C-0.0713458 5.98744 -0.0713458 5.51256 0.214037 5.21967L4.59865 0.71967C4.88404 0.426777 5.34673 0.426777 5.63212 0.71967Z" fill="white"/>
    <path fill-rule="evenodd" clip-rule="evenodd" d="M1.08893e-08 5.75C1.08893e-08 5.33579 0.327177 5 0.730769 5H9.5C12.0196 5 14.4359 6.02723 16.2175 7.85571C17.9991 9.68419 19 12.1641 19 14.75C19 15.1642 18.6728 15.5 18.2692 15.5C17.8656 15.5 17.5385 15.1642 17.5385 14.75C17.5385 12.562 16.6916 10.4635 15.184 8.91637C13.6765 7.36919 11.6319 6.5 9.5 6.5H0.730769C0.327177 6.5 1.08893e-08 6.16421 1.08893e-08 5.75Z" fill="white"/>
</svg>
