<svg xmlns="http://www.w3.org/2000/svg" width="360" height="420" viewBox="0 0 360 420" fill="none">
    <g opacity="0.14" filter="url(#filter0_f_137_3296)">
        <path d="M351 106.429C351 238.662 262.708 286 141.488 286C20.2683 286 -78 178.804 -78 46.5707C-78 -85.6624 -39.5922 -133 81.6279 -133C202.848 -133 351 -25.8039 351 106.429Z" fill="#E4F800"/>
        <path d="M351 106.429C351 238.662 262.708 286 141.488 286C20.2683 286 -78 178.804 -78 46.5707C-78 -85.6624 -39.5922 -133 81.6279 -133C202.848 -133 351 -25.8039 351 106.429Z" fill="url(#paint0_radial_137_3296)"/>
        <path d="M351 106.429C351 238.662 262.708 286 141.488 286C20.2683 286 -78 178.804 -78 46.5707C-78 -85.6624 -39.5922 -133 81.6279 -133C202.848 -133 351 -25.8039 351 106.429Z" fill="url(#paint1_radial_137_3296)"/>
        <path d="M351 106.429C351 238.662 262.708 286 141.488 286C20.2683 286 -78 178.804 -78 46.5707C-78 -85.6624 -39.5922 -133 81.6279 -133C202.848 -133 351 -25.8039 351 106.429Z" fill="url(#paint2_radial_137_3296)"/>
        <path d="M351 106.429C351 238.662 262.708 286 141.488 286C20.2683 286 -78 178.804 -78 46.5707C-78 -85.6624 -39.5922 -133 81.6279 -133C202.848 -133 351 -25.8039 351 106.429Z" fill="url(#paint3_radial_137_3296)" fill-opacity="0.2"/>
        <path d="M351 106.429C351 238.662 262.708 286 141.488 286C20.2683 286 -78 178.804 -78 46.5707C-78 -85.6624 -39.5922 -133 81.6279 -133C202.848 -133 351 -25.8039 351 106.429Z" fill="url(#paint4_radial_137_3296)"/>
        <path d="M350.6 106.429C350.6 172.448 328.566 217.211 291.459 245.484C254.333 273.772 202.057 285.6 141.488 285.6C20.5212 285.6 -77.6 178.616 -77.6 46.5707C-77.6 -19.5317 -67.9943 -64.2928 -43.3422 -92.5391C-18.7041 -120.769 21.0529 -132.6 81.6279 -132.6C142.13 -132.6 209.385 -105.844 261.516 -62.565C313.646 -19.2868 350.6 40.4671 350.6 106.429Z" stroke="white" stroke-opacity="0.21" stroke-width="0.800001"/>
    </g>
    <defs>
        <filter id="filter0_f_137_3296" x="-212" y="-267" width="697" height="687" filterUnits="userSpaceOnUse" color-interpolation-filters="sRGB">
            <feFlood flood-opacity="0" result="BackgroundImageFix"/>
            <feBlend mode="normal" in="SourceGraphic" in2="BackgroundImageFix" result="shape"/>
            <feGaussianBlur stdDeviation="67" result="effect1_foregroundBlur_137_3296"/>
        </filter>
        <radialGradient id="paint0_radial_137_3296" cx="0" cy="0" r="1" gradientUnits="userSpaceOnUse" gradientTransform="translate(-28.1163 76.5006) rotate(-13.2399) scale(174.236 302.767)">
            <stop stop-color="#FF2B00"/>
            <stop offset="1" stop-color="#FF2B00" stop-opacity="0"/>
        </radialGradient>
        <radialGradient id="paint1_radial_137_3296" cx="0" cy="0" r="1" gradientUnits="userSpaceOnUse" gradientTransform="translate(301.116 -13.2853) rotate(154.655) scale(209.747 283.63)">
            <stop stop-color="#47D1FC"/>
            <stop offset="0.223958" stop-color="#47D1FC" stop-opacity="0.776042"/>
            <stop offset="1" stop-color="#47D1FC" stop-opacity="0"/>
        </radialGradient>
        <radialGradient id="paint2_radial_137_3296" cx="0" cy="0" r="1" gradientUnits="userSpaceOnUse" gradientTransform="translate(141.488 176.263) rotate(-97.595) scale(150.968 122.807)">
            <stop stop-color="#00B13F"/>
            <stop offset="1" stop-color="#00B13F" stop-opacity="0"/>
        </radialGradient>
        <radialGradient id="paint3_radial_137_3296" cx="0" cy="0" r="1" gradientUnits="userSpaceOnUse" gradientTransform="translate(31.7442 26.6195) rotate(68.9615) scale(138.954 142.268)">
            <stop stop-color="white"/>
            <stop offset="1" stop-color="white" stop-opacity="0"/>
        </radialGradient>
        <radialGradient id="paint4_radial_137_3296" cx="0" cy="0" r="1" gradientUnits="userSpaceOnUse" gradientTransform="translate(141.488 26.6195) rotate(90) scale(139.667 143)">
            <stop stop-color="white"/>
            <stop offset="1" stop-color="white" stop-opacity="0"/>
        </radialGradient>
    </defs>
</svg>