<svg width="40" height="40" viewBox="0 0 40 40" fill="none" xmlns="http://www.w3.org/2000/svg">
<mask id="mask0_1030_739" style="mask-type:alpha" maskUnits="userSpaceOnUse" x="0" y="0" width="40" height="40">
<rect width="40" height="40" fill="#D9D9D9"/>
</mask>
<g mask="url(#mask0_1030_739)">
<path d="M10.1281 28.953C9.41175 28.953 8.79819 28.6952 8.28742 28.1795C7.77667 27.6639 7.52129 27.0528 7.52129 26.3462V8.2479C7.52129 7.53157 7.77667 6.91802 8.28742 6.40724C8.79819 5.89649 9.41175 5.64111 10.1281 5.64111H34.893C35.6094 5.64111 36.2229 5.89649 36.7337 6.40724C37.2445 6.91802 37.4999 7.53157 37.4999 8.2479V26.3462C37.4999 27.0528 37.2445 27.6639 36.7337 28.1795C36.2229 28.6952 35.6094 28.953 34.893 28.953H10.1281ZM22.5106 20.4231L9.61525 10.267V26.3462C9.61525 26.4958 9.66332 26.6187 9.75946 26.7148C9.85563 26.811 9.9785 26.8591 10.1281 26.8591H34.893C35.0426 26.8591 35.1655 26.811 35.2617 26.7148C35.3578 26.6187 35.4059 26.4958 35.4059 26.3462V10.267L22.5106 20.4231ZM22.5106 17.7543L35.1495 7.8312C35.1103 7.79917 35.0738 7.77514 35.04 7.75911C35.0061 7.74309 34.9572 7.73507 34.893 7.73507H10.1388C10.0853 7.73507 10.0319 7.74842 9.9785 7.77511C9.92508 7.80184 9.88235 7.83123 9.85029 7.86328L22.5106 17.7543ZM5.10679 33.9743C4.39046 33.9743 3.7769 33.7165 3.26613 33.2008C2.75538 32.6852 2.5 32.074 2.5 31.3675V11.8335H4.59392V31.3675C4.59392 31.5171 4.642 31.6399 4.73817 31.7361C4.83433 31.8323 4.95721 31.8804 5.10679 31.8804H32.3823V33.9743H5.10679ZM35.4059 10.2521C35.4059 9.83329 35.3872 9.42181 35.3498 9.01761C35.3124 8.61342 35.2777 8.21795 35.2456 7.8312C35.2136 7.79917 35.1628 7.77514 35.0934 7.75911C35.0239 7.74309 34.9572 7.73507 34.893 7.73507H10.1388C10.0853 7.73507 10.0141 7.74842 9.92508 7.77511C9.83606 7.80184 9.77551 7.83123 9.74346 7.86328C9.7114 8.25 9.68201 8.6428 9.65529 9.04166C9.6286 9.44049 9.61525 9.84396 9.61525 10.2521V7.73507H35.4059V10.2521Z" fill="white"/>
</g>
</svg>
