<svg xmlns="http://www.w3.org/2000/svg" width="22" height="22" viewBox="0 0 22 22" fill="none">
    <g id="Ellipse 429">
        <g filter="url(#filter0_i_136_2540)">
            <path d="M21.5 12.5C21.5 19.1274 17.0751 21.4999 11 21.4999C4.92487 21.4999 0 16.1274 0 9.49994C0 2.87252 1.92487 0.5 8 0.5C14.0751 0.5 21.5 5.87258 21.5 12.5Z" fill="#E4F800"/>
            <path d="M21.5 12.5C21.5 19.1274 17.0751 21.4999 11 21.4999C4.92487 21.4999 0 16.1274 0 9.49994C0 2.87252 1.92487 0.5 8 0.5C14.0751 0.5 21.5 5.87258 21.5 12.5Z" fill="url(#paint0_radial_136_2540)"/>
            <path d="M21.5 12.5C21.5 19.1274 17.0751 21.4999 11 21.4999C4.92487 21.4999 0 16.1274 0 9.49994C0 2.87252 1.92487 0.5 8 0.5C14.0751 0.5 21.5 5.87258 21.5 12.5Z" fill="url(#paint1_radial_136_2540)"/>
            <path d="M21.5 12.5C21.5 19.1274 17.0751 21.4999 11 21.4999C4.92487 21.4999 0 16.1274 0 9.49994C0 2.87252 1.92487 0.5 8 0.5C14.0751 0.5 21.5 5.87258 21.5 12.5Z" fill="url(#paint2_radial_136_2540)"/>
            <path d="M21.5 12.5C21.5 19.1274 17.0751 21.4999 11 21.4999C4.92487 21.4999 0 16.1274 0 9.49994C0 2.87252 1.92487 0.5 8 0.5C14.0751 0.5 21.5 5.87258 21.5 12.5Z" fill="url(#paint3_radial_136_2540)" fill-opacity="0.2"/>
            <path d="M21.5 12.5C21.5 19.1274 17.0751 21.4999 11 21.4999C4.92487 21.4999 0 16.1274 0 9.49994C0 2.87252 1.92487 0.5 8 0.5C14.0751 0.5 21.5 5.87258 21.5 12.5Z" fill="url(#paint4_radial_136_2540)"/>
        </g>
        <path d="M21.4 12.5C21.4 15.7893 20.3034 18.0069 18.4676 19.4057C16.6268 20.8084 14.0272 21.3999 11 21.3999C4.98811 21.3999 0.1 16.0805 0.1 9.49994C0.1 6.18977 0.582158 3.97267 1.79717 2.58044C3.00868 1.19222 4.9712 0.6 8 0.6C11.0106 0.6 14.3636 1.93247 16.9643 4.09166C19.5648 6.25073 21.4 9.22489 21.4 12.5Z" stroke="white" stroke-opacity="0.21" stroke-width="0.2"/>
    </g>
    <defs>
        <filter id="filter0_i_136_2540" x="0" y="0.5" width="21.5" height="21" filterUnits="userSpaceOnUse" color-interpolation-filters="sRGB">
            <feFlood flood-opacity="0" result="BackgroundImageFix"/>
            <feBlend mode="normal" in="SourceGraphic" in2="BackgroundImageFix" result="shape"/>
            <feColorMatrix in="SourceAlpha" type="matrix" values="0 0 0 0 0 0 0 0 0 0 0 0 0 0 0 0 0 0 127 0" result="hardAlpha"/>
            <feOffset/>
            <feGaussianBlur stdDeviation="2"/>
            <feComposite in2="hardAlpha" operator="arithmetic" k2="-1" k3="1"/>
            <feColorMatrix type="matrix" values="0 0 0 0 1 0 0 0 0 1 0 0 0 0 1 0 0 0 0.81 0"/>
            <feBlend mode="normal" in2="shape" result="effect1_innerShadow_136_2540"/>
        </filter>
        <radialGradient id="paint0_radial_136_2540" cx="0" cy="0" r="1" gradientUnits="userSpaceOnUse" gradientTransform="translate(2.5 11) rotate(-13.2405) scale(8.73213 15.1744)">
            <stop stop-color="#FF2B00"/>
            <stop offset="1" stop-color="#FF2B00" stop-opacity="0"/>
        </radialGradient>
        <radialGradient id="paint1_radial_136_2540" cx="0" cy="0" r="1" gradientUnits="userSpaceOnUse" gradientTransform="translate(19 6.5) rotate(154.654) scale(10.5119 14.2152)">
            <stop stop-color="#47D1FC"/>
            <stop offset="0.223958" stop-color="#47D1FC" stop-opacity="0.776042"/>
            <stop offset="1" stop-color="#47D1FC" stop-opacity="0"/>
        </radialGradient>
        <radialGradient id="paint2_radial_136_2540" cx="0" cy="0" r="1" gradientUnits="userSpaceOnUse" gradientTransform="translate(11 16) rotate(-97.5946) scale(7.56637 6.15469)">
            <stop stop-color="#00B13F"/>
            <stop offset="1" stop-color="#00B13F" stop-opacity="0"/>
        </radialGradient>
        <radialGradient id="paint3_radial_136_2540" cx="0" cy="0" r="1" gradientUnits="userSpaceOnUse" gradientTransform="translate(5.5 8.5) rotate(68.9625) scale(6.96419 7.13003)">
            <stop stop-color="white"/>
            <stop offset="1" stop-color="white" stop-opacity="0"/>
        </radialGradient>
        <radialGradient id="paint4_radial_136_2540" cx="0" cy="0" r="1" gradientUnits="userSpaceOnUse" gradientTransform="translate(11 8.5) rotate(90) scale(7 7.16669)">
            <stop stop-color="white"/>
            <stop offset="1" stop-color="white" stop-opacity="0"/>
        </radialGradient>
    </defs>
</svg>