<svg width="20" height="20" viewBox="0 0 20 20" fill="none" xmlns="http://www.w3.org/2000/svg">
    <path fill-rule="evenodd" clip-rule="evenodd"
          d="M4.63072 2.5L15.3672 2.5C15.6151 2.50041 15.8572 2.57451 16.0628 2.71287C16.2685 2.85122 16.4284 3.0476 16.5222 3.27704C16.616 3.50647 16.6394 3.75861 16.5896 4.00141C16.5399 4.2433 16.4197 4.46504 16.2442 4.63867L16.2422 4.64063L10.4409 10.4419C10.3237 10.5592 10.1647 10.625 9.99896 10.625C9.8332 10.625 9.67422 10.5592 9.55701 10.4419L3.75373 4.63866C3.57821 4.46503 3.45802 4.2433 3.40836 4.00141C3.3585 3.75861 3.38196 3.50647 3.47574 3.27704C3.56953 3.0476 3.72941 2.85123 3.93506 2.71287C4.14051 2.57465 4.38237 2.50056 4.62997 2.5M15.3651 3.75L4.63281 3.75L4.63622 3.75336L9.99896 9.11612L15.3651 3.75Z"
          fill="#E34343"/>
    <path fill-rule="evenodd" clip-rule="evenodd"
          d="M9.99896 9.375C10.1647 9.375 10.3237 9.44085 10.4409 9.55806L16.2422 15.3594L16.2442 15.3613C16.4197 15.535 16.5399 15.7567 16.5896 15.9986C16.6394 16.2414 16.616 16.4935 16.5222 16.723C16.4284 16.9524 16.2685 17.1488 16.0628 17.2871C15.8572 17.4255 15.6151 17.4996 15.3672 17.5H4.63072C4.38286 17.4996 4.14071 17.4255 3.93506 17.2871C3.72941 17.1488 3.56953 16.9524 3.47574 16.723C3.38196 16.4935 3.3585 16.2414 3.40836 15.9986C3.45802 15.7567 3.57822 15.535 3.75375 15.3613L9.55701 9.55806C9.67422 9.44085 9.8332 9.375 9.99896 9.375ZM9.99896 10.8839L4.63284 16.25L15.3651 16.25L15.3617 16.2466L9.99896 10.8839Z"
          fill="#E34343"/>
</svg>
