<svg width="20" height="20" viewBox="0 0 20 20" fill="none" xmlns="http://www.w3.org/2000/svg">
    <path d="M7.24725 12.6459C7.59186 13.2821 6.98663 14.0222 6.28828 13.8185L4.10325 13.182C3.49919 13.0061 2.86173 13.3514 2.67915 13.9535L2.56097 14.5834L9.3736 17.8625C10.7772 18.2714 12.3429 18.1465 13.7381 17.3907C16.5277 15.8796 17.5775 12.4176 16.0829 9.65858L13.1962 4.32963C12.8973 3.77775 12.2027 3.57544 11.6447 3.87771C11.0867 4.17997 10.8768 4.87226 11.1757 5.42414L12.7995 8.42168L10.0932 3.42578C9.79425 2.8739 9.09969 2.67159 8.5417 2.97386C7.98371 3.27612 7.77377 3.96841 8.07273 4.52029L10.4182 8.85006L10.0574 8.18394L7.35104 3.18805C7.05209 2.63617 6.35753 2.43386 5.79954 2.73613C5.24155 3.03839 5.03161 3.73068 5.33057 4.28256L8.03688 9.27845L8.39772 9.94457L5.69141 4.94868C5.39245 4.3968 4.69789 4.19449 4.13991 4.49675C3.58192 4.79902 3.37197 5.49131 3.67093 6.04319L6.37724 11.0391L7.24725 12.6459Z" stroke="white" stroke-width="1.2" stroke-miterlimit="10" stroke-linecap="round" stroke-linejoin="round"/>
    <path d="M12.5605 1.66699C13.8939 1.66699 14.7828 2.7781 15.0605 3.33366" stroke="white" stroke-width="1.2" stroke-linecap="round"/>
</svg>
