<svg width="28" height="28" viewBox="0 0 28 28" fill="none" xmlns="http://www.w3.org/2000/svg">
<path fill-rule="evenodd" clip-rule="evenodd" d="M28 14C28 21.732 21.732 28 14 28C6.26801 28 0 21.732 0 14C0 6.26801 6.26801 0 14 0C21.732 0 28 6.26801 28 14ZM18.924 24.9465C17.4216 25.6234 15.7548 26 14 26C11.1031 26 8.44591 24.9735 6.3724 23.2643C8.52944 19.6447 11.9989 16.9003 16.123 15.6861C17.3076 18.6581 18.2494 21.7531 18.924 24.9465ZM20.7487 23.9239C20.0841 20.9351 19.193 18.0318 18.0945 15.2327C19.009 15.0797 19.9483 15 20.9062 15C22.6366 15 24.3047 15.2596 25.8745 15.7415C25.3807 19.1382 23.4641 22.0737 20.7487 23.9239ZM25.9962 13.6933C24.3758 13.2414 22.6685 13 20.9062 13C19.6778 13 18.4767 13.1172 17.3136 13.3409C17.0102 12.6408 16.6937 11.9477 16.3643 11.262C18.9824 10.0999 21.402 8.57181 23.5577 6.7429C25.0326 8.68241 25.9307 11.0845 25.9962 13.6933ZM22.2186 5.25613C20.1947 6.96582 17.9237 8.39155 15.4667 9.47206C14.1697 6.99186 12.7017 4.61533 11.0784 2.35816C12.0136 2.12421 12.9923 2 14 2C17.1801 2 20.0713 3.23702 22.2186 5.25613ZM9.10253 3.04161C5.57974 4.6184 2.95607 7.844 2.2131 11.7368C2.89578 11.787 3.58546 11.8125 4.28127 11.8125C7.54918 11.8125 10.6851 11.2492 13.5974 10.2142C12.2746 7.70713 10.7706 5.31047 9.10253 3.04161ZM2.00305 13.7267C2.00102 13.8176 2 13.9087 2 14C2 16.992 3.09504 19.7283 4.90621 21.8299C7.29203 18.0493 10.982 15.172 15.3453 13.8311C15.0759 13.2193 14.796 12.6131 14.506 12.0127C11.3168 13.1771 7.87298 13.8125 4.28127 13.8125C3.51493 13.8125 2.75517 13.7836 2.00305 13.7267Z" fill="white"/>
</svg>
